<?xml version="1.0" encoding="UTF-8"?>
<svg width="27px" height="23px" viewBox="0 0 27 23" version="1.1" xmlns="http://www.w3.org/2000/svg" xmlns:xlink="http://www.w3.org/1999/xlink">
    <!-- Generator: Sketch 50.2 (55047) - http://www.bohemiancoding.com/sketch -->
    <title>Shape</title>
    <desc>Created with Sketch.</desc>
    <defs></defs>
    <g id="Page-1" stroke="none" stroke-width="1" fill="none" fill-rule="evenodd">
        <g id="Home" transform="translate(-22.000000, -30.000000)" fill="#FFFFFF" fill-rule="nonzero">
            <g id="Header" transform="translate(-55.000000, -15.000000)">
                <g id="bars" transform="translate(77.000000, 45.000000)">
                    <path d="M0.964285714,4.2244898 L26.0357143,4.2244898 C26.5683013,4.2244898 27,3.80421173 27,3.28571429 L27,0.93877551 C27,0.420278061 26.5683013,0 26.0357143,0 L0.964285714,0 C0.431698661,0 0,0.420278061 0,0.93877551 L0,3.28571429 C0,3.80421173 0.431698661,4.2244898 0.964285714,4.2244898 Z M0.964285714,13.6122449 L26.0357143,13.6122449 C26.5683013,13.6122449 27,13.1919668 27,12.6734694 L27,10.3265306 C27,9.80803316 26.5683013,9.3877551 26.0357143,9.3877551 L0.964285714,9.3877551 C0.431698661,9.3877551 0,9.80803316 0,10.3265306 L0,12.6734694 C0,13.1919668 0.431698661,13.6122449 0.964285714,13.6122449 Z M0.964285714,23 L26.0357143,23 C26.5683013,23 27,22.5797219 27,22.0612245 L27,19.7142857 C27,19.1957883 26.5683013,18.7755102 26.0357143,18.7755102 L0.964285714,18.7755102 C0.431698661,18.7755102 0,19.1957883 0,19.7142857 L0,22.0612245 C0,22.5797219 0.431698661,23 0.964285714,23 Z" id="Shape"></path>
                </g>
            </g>
        </g>
    </g>
</svg>