<?xml version="1.0" encoding="UTF-8"?>
<svg width="28px" height="28px" viewBox="0 0 28 28" version="1.1" xmlns="http://www.w3.org/2000/svg" xmlns:xlink="http://www.w3.org/1999/xlink">
    <!-- Generator: Sketch 50.2 (55047) - http://www.bohemiancoding.com/sketch -->
    <title>Shape</title>
    <desc>Created with Sketch.</desc>
    <defs></defs>
    <g id="Page-1" stroke="none" stroke-width="1" fill="none" fill-rule="evenodd">
        <g id="Home" transform="translate(-265.000000, -30.000000)" fill="#FFFFFF" fill-rule="nonzero">
            <g id="Header" transform="translate(-55.000000, -15.000000)">
                <g id="search" transform="translate(320.000000, 45.000000)">
                    <path d="M27.6192077,24.2077922 L22.1664651,18.7559809 C21.9203533,18.5099111 21.5867352,18.3732057 21.2367096,18.3732057 L20.3452381,18.3732057 C21.8547235,16.4429255 22.7516642,14.0150376 22.7516642,11.3738893 C22.7516642,5.09090909 17.6598855,0 11.3758321,0 C5.09177868,0 0,5.09090909 0,11.3738893 C0,17.6568694 5.09177868,22.7477785 11.3758321,22.7477785 C14.0174315,22.7477785 16.4457342,21.8509911 18.3763441,20.3417635 L18.3763441,21.2330827 C18.3763441,21.5830485 18.5130729,21.9166097 18.7591846,22.1626794 L24.2119272,27.6144908 C24.7260273,28.1285031 25.5573381,28.1285031 26.0659691,27.6144908 L27.6137385,26.0669856 C28.1278386,25.5529733 28.1278386,24.7218045 27.6192077,24.2077922 Z M11.3758321,18.3732057 C7.509143,18.3732057 4.37532003,15.2453862 4.37532003,11.3738893 C4.37532003,7.50786056 7.50367385,4.3745728 11.3758321,4.3745728 C15.2425212,4.3745728 18.3763441,7.50239234 18.3763441,11.3738893 C18.3763441,15.239918 15.2479903,18.3732057 11.3758321,18.3732057 Z" id="Shape"></path>
                </g>
            </g>
        </g>
    </g>
</svg>